<svg version="1.2" xmlns="http://www.w3.org/2000/svg" viewBox="0 0 128 128" width="128" height="128"><style>.a{paint-order:stroke fill markers;stroke:#fff;stroke-width: 6;stroke-linejoin: round;}</style><path class="a" d="m12.9 53.1v-38.9q0-1.3 0.9-2.1 0.9-0.9 2.2-0.9h5.8q1.2 0 2 0.9 0.9 0.8 0.9 2.1v14h21.5v-14q0-1.3 0.9-2.1 0.9-0.9 2.1-0.9h5.8q1.3 0 2.1 0.9 0.9 0.8 0.9 2.1v38.9q0 1.2-0.9 2.1-0.9 0.8-2.1 0.8h-5.8q-1.2 0-2.1-0.8-0.9-0.9-0.9-2.1v-16h-21.5v16q0 1.2-0.9 2.1-0.8 0.8-2 0.8h-5.8q-1.3 0-2.2-0.8-0.9-0.9-0.9-2.1z"/><path class="a" d="m42.1 86.1v-38.9q0-1.3 0.9-2.1 0.8-0.9 2.1-0.9h17.4q13.6 0 19.8 5.4 6.1 5.4 6.1 17 0 11.6-6.2 17-6.1 5.4-19.7 5.4h-17.4q-1.3 0-2.1-0.8-0.9-0.9-0.9-2.1zm11.8-33.1v27.2h8.3q8.4 0 11.4-3.1 3.1-3.1 3.1-10.5 0-7.4-3.1-10.5-3-3.1-11.4-3.1z"/><path class="a" d="m71.4 79.1v-2.9q0-1.3 0.9-2.2 0.8-0.8 2.1-0.8h39.7q1.2 0 2.1 0.8 0.8 0.9 0.8 2.2v2.9q0 1.3-0.8 2.1-0.9 0.8-2.1 0.8h-14v33.1q0 1.2-0.8 2.1-0.9 0.8-2.1 0.8h-5.9q-1.2 0-2.1-0.8-0.9-0.9-0.9-2.1v-33.1h-13.9q-1.3 0-2.1-0.8-0.9-0.8-0.9-2.1z"/></svg>